<svg xmlns="http://www.w3.org/2000/svg" width="27.446" height="27.446" viewBox="0 0 27.446 27.446"><defs><style>.cls-1{fill:#fff;}</style></defs><g id="Layer_2" data-name="Layer 2"><g id="Layer_1-2" data-name="Layer 1"><path class="cls-1" d="M13.739,0A13.723,13.723,0,1,1,0,13.6,13.717,13.717,0,0,1,13.739,0Zm0,25.085A11.362,11.362,0,1,0,2.361,13.72,11.386,11.386,0,0,0,13.738,25.085Z"/><path class="cls-1" d="M15.812,22.572H11.671V16.041l-1.259-.091V13.47c0-.946-.01-1.893,0-2.84.014-.918.307-1.208,1.2-1.212,1.455-.006,2.91,0,4.365,0,.609,0,1.01.292,1.021.889.032,1.865.012,3.731.012,5.653l-1.206.068Z"/><path class="cls-1" d="M11.753,6.819a1.97,1.97,0,1,1,1.954,2.007A1.956,1.956,0,0,1,11.753,6.819Z"/></g></g></svg>