<svg xmlns="http://www.w3.org/2000/svg" width="17.251" height="17.215" viewBox="0 0 17.251 17.215"><defs><style>.cls-1{fill:#293845;}</style></defs><g id="Layer_2" data-name="Layer 2"><g id="Layer_1-2" data-name="Layer 1"><g id="_4l7OYt" data-name="4l7OYt"><path class="cls-1" d="M8.625,0h7.407a1.216,1.216,0,0,1,1.2,1.145c.009.3.021.607.021.911q0,6.885,0,13.769a1.374,1.374,0,0,1-.3.941,1.243,1.243,0,0,1-.884.447c-.025,0-.051,0-.076,0H1.233A1.219,1.219,0,0,1,.029,16.2,2.251,2.251,0,0,1,0,15.84Q0,8.6,0,1.353A1.339,1.339,0,0,1,.215.537,1.178,1.178,0,0,1,1.2,0Q4.912-.005,8.625,0ZM9.179,7.53V6.6c0-.176,0-.176-.174-.176q-1.071,0-2.142,0c-.164,0-.175.009-.175.17v7.959c0,.134.011.145.141.146.772,0,1.544,0,2.316,0,.109,0,.143-.038.142-.146q-.006-.913,0-1.827c.005-.88,0-1.761.028-2.641a2.476,2.476,0,0,1,.152-.728,1.152,1.152,0,0,1,.876-.794,1.861,1.861,0,0,1,.732-.035,1.052,1.052,0,0,1,.853.657,2.573,2.573,0,0,1,.186,1c.009,1.453.005,2.907.005,4.36,0,.155,0,.156.158.156H14.56c.163,0,.164,0,.164-.163,0-1.341,0-2.682,0-4.023,0-.42-.021-.839-.04-1.258a4.326,4.326,0,0,0-.323-1.488,2.279,2.279,0,0,0-1.21-1.26,3.512,3.512,0,0,0-1.222-.271,3.187,3.187,0,0,0-1.528.246A2.767,2.767,0,0,0,9.179,7.53ZM5.13,10.573V6.6c0-.179,0-.18-.184-.18q-1.125,0-2.251,0c-.158,0-.163,0-.163.167v7.95c0,.151.007.158.161.158H4.955c.174,0,.175,0,.175-.177Zm-2.8-6.736a1.506,1.506,0,1,0,1.5-1.5A1.5,1.5,0,0,0,2.331,3.837Z"/></g></g></g></svg>