<svg xmlns="http://www.w3.org/2000/svg" width="16.545" height="13.561" viewBox="0 0 16.545 13.561"><defs><style>.cls-1{fill:#293845;}</style></defs><g id="Layer_2" data-name="Layer 2"><g id="Layer_1-2" data-name="Layer 1"><g id="Layer_2-2" data-name="Layer 2"><g id="Layer_1-2-2" data-name="Layer 1-2"><path class="cls-1" d="M16.085.4,14.313.993c-.263.131-.394.065-.591-.132A3.416,3.416,0,0,0,9.848.4,3.546,3.546,0,0,0,8.075,3.947c.066.066,0,.2,0,.263A9.719,9.719,0,0,1,1.05.6,3.568,3.568,0,0,0,2.1,5.194H2.035L.591,4.866A3.611,3.611,0,0,0,3.283,8.215H1.838A3.284,3.284,0,0,0,4.99,10.578,6.832,6.832,0,0,1,0,12.023l.263.131A9.127,9.127,0,0,0,4.6,13.533a9.331,9.331,0,0,0,5.318-1.182A9.748,9.748,0,0,0,14.9,3.684a.591.591,0,0,1,.262-.525,6.122,6.122,0,0,0,1.379-1.51l-.919.328-.854.2A4.327,4.327,0,0,0,16.085.4Z"/></g></g></g></g></svg>