<svg xmlns="http://www.w3.org/2000/svg" width="27.455" height="27.449" viewBox="0 0 27.455 27.449"><defs><style>.cls-1{fill:#fff;}</style></defs><g id="Layer_2" data-name="Layer 2"><g id="Layer_1-2" data-name="Layer 1"><path class="cls-1" d="M13.772,0A13.543,13.543,0,0,1,27.455,13.8,13.663,13.663,0,0,1,13.666,27.449,13.81,13.81,0,0,1,0,13.693C-.029,6.726,5.813-.168,13.772,0Zm11.2,13.79A11.194,11.194,0,0,0,13.845,2.478a11.386,11.386,0,0,0-11.361,11.2A11.406,11.406,0,0,0,13.676,24.931C19.142,24.964,25.044,20.644,24.968,13.793Z"/><path class="cls-1" d="M13.563,11.463l-1.716.891a5.985,5.985,0,0,0-.933-.836,1.515,1.515,0,0,0-2.261.83,7.212,7.212,0,0,0-.064,2.506,1.413,1.413,0,0,0,1.3,1.251,1.706,1.706,0,0,0,1.848-.791c.059-.1.123-.186.213-.323l1.6.812a3.912,3.912,0,0,1-4.45,2.1,3.74,3.74,0,0,1-3.163-3.8c-.122-2.287.91-3.951,2.781-4.486A4.132,4.132,0,0,1,13.563,11.463Z"/><path class="cls-1" d="M19.881,14.994l1.614.819a4.055,4.055,0,0,1-4.7,2.059,3.813,3.813,0,0,1-2.93-4.007c-.024-2.216,1.056-3.814,2.889-4.273a4.006,4.006,0,0,1,4.717,1.874l-1.68.89a5.949,5.949,0,0,0-.931-.837,1.548,1.548,0,0,0-2.309.867,6.477,6.477,0,0,0-.1,2.312A1.531,1.531,0,0,0,17.778,16.1C18.672,16.254,19.176,16,19.881,14.994Z"/></g></g></svg>