<svg xmlns="http://www.w3.org/2000/svg" width="27.446" height="27.446" viewBox="0 0 27.446 27.446"><defs><style>.cls-1{fill:#fff;}</style></defs><g id="Layer_2" data-name="Layer 2"><g id="Layer_1-2" data-name="Layer 1"><path class="cls-1" d="M13.705,0A13.545,13.545,0,0,1,27.446,13.749a13.579,13.579,0,0,1-13.73,13.7A13.723,13.723,0,0,1,13.705,0ZM24.959,13.745A11.131,11.131,0,0,0,13.782,2.488,11.285,11.285,0,0,0,2.488,13.676,11.341,11.341,0,0,0,13.711,24.957C19.331,25.016,25.105,20.269,24.959,13.745Z"/><path class="cls-1" d="M7.542,15.938H10.9a1.041,1.041,0,0,1,.1.235,2.327,2.327,0,0,0,2.032,2.136,2.837,2.837,0,0,0,3.282-1.19,6.4,6.4,0,0,0,.178-6.415c-.581-1.172-1.851-1.561-3.382-1.252a2.445,2.445,0,0,0-2.074,2.3l.819.069-2.6,2.493L6.748,11.8h.83c.057-.206.1-.356.141-.509a5.947,5.947,0,0,1,7.162-4.718,6.761,6.761,0,0,1,5.785,6.39,7.852,7.852,0,0,1-1.657,5.9,7.039,7.039,0,0,1-8.134,1.84A5.665,5.665,0,0,1,7.542,15.938Z"/></g></g></svg>