<svg xmlns="http://www.w3.org/2000/svg" width="7.353" height="15.823" viewBox="0 0 7.353 15.823"><defs><style>.cls-1{fill:#293845;}</style></defs><g id="Layer_2" data-name="Layer 2"><g id="Layer_1-2" data-name="Layer 1"><g id="Layer_2-2" data-name="Layer 2"><g id="Layer_1-2-2" data-name="Layer 1-2"><path class="cls-1" d="M0,5.187V7.944H1.641v7.879H4.924V7.944h1.9c.2,0,.263-.065.263-.262A6.769,6.769,0,0,1,7.222,6.7c.066-.329.066-.985.131-1.51H4.858V4.005a1.126,1.126,0,0,1,.066-.46c0-.525.263-.788.854-.788H7.353V0H5.187L4.071.131A2.693,2.693,0,0,0,1.707,2.692c-.066.722-.066,1.444-.066,2.166v.329Z"/></g></g></g></g></svg>