<svg xmlns="http://www.w3.org/2000/svg" width="133.168" height="59.476" viewBox="0 0 133.168 59.476"><defs><style>.cls-1{fill:#fff;}</style></defs><g id="Layer_2" data-name="Layer 2"><g id="Layer_1-2" data-name="Layer 1"><path class="cls-1" d="M13.893,57.6a.728.728,0,0,1,.712.794c0,.766-.738.848-1.094.848a2.243,2.243,0,0,1-2.49-1.941c-.027-.165-.054-.273-.136-.273-.027,0-.054.027-.109.082a5.693,5.693,0,0,1-4.567,2.3C2.654,59.407,0,56.838,0,52.872A6.123,6.123,0,0,1,6.206,46.39a5.5,5.5,0,0,1,4.321,1.968c.137.191.219.328.274.328s.083-.137.083-.492c0-1.4.026-3.336.026-4.923,0-1.859,0-2.324-1.1-2.324a3.375,3.375,0,0,0-.438.028H9.322a.7.7,0,0,1-.765-.711.812.812,0,0,1,.848-.821c.273,0,.656-.027.9-.027A1.989,1.989,0,0,1,12.5,41.685v.109c-.027,2.3-.053,6.728-.052,10.474,0,1.394,0,2.652,0,3.719,0,1.313.465,1.641,1.067,1.64.136,0,.245-.028.355-.028ZM10.884,52.87c0-3.063-2.025-5.059-4.622-5.058-2.763,0-4.649,1.915-4.648,5.059,0,3.118,1.915,5.033,4.649,5.032C8.834,57.9,10.885,55.905,10.884,52.87Z"/><path class="cls-1" d="M25.76,57.406c-.028-.083-.055-.137-.109-.137a.148.148,0,0,0-.11.082,5.053,5.053,0,0,1-4.156,2.107c-2.761,0-4.431-1.886-4.431-3.773,0-1.368.9-2.762,2.926-3.392a43.806,43.806,0,0,1,5.058-1.121c.328-.055.438-.138.438-.329,0-.137.027-.3.026-.438,0-1.5-.628-2.679-2.843-2.679a4.309,4.309,0,0,0-3.2,1.314.763.763,0,0,1-.574.273.742.742,0,0,1-.766-.738c0-1.04,2.3-2.215,4.648-2.216,2.544,0,4.267,1.12,4.268,4.183a7.532,7.532,0,0,1-.027.766c-.082.9-.137,2.323-.136,3.363,0,2,.192,2.652,1.285,3.035a.7.7,0,0,1,.466.683.74.74,0,0,1-.738.766A2.326,2.326,0,0,1,25.76,57.406Zm-.411-4.184v-.355c0-.219-.083-.3-.274-.3h-.082c-4.293.686-6.563,1.233-6.562,3.147,0,1.148,1.094,2.3,2.926,2.3C22.752,58.008,25.349,57.433,25.349,53.222Z"/><path class="cls-1" d="M34.864,48.106c-.438,0-.438.055-.438.383,0,1.039-.081,3.855-.081,5.88,0,2.132.056,3.582,2.188,3.581A7.562,7.562,0,0,0,37.3,57.9h.11a.679.679,0,0,1,.657.711c0,.711-.657.848-1.75.849-3.5,0-3.5-2.98-3.5-4.184,0-1.75.052-5.086.052-6.426v-.437c0-.274-.081-.3-.273-.3H30.981a.726.726,0,1,1,0-1.45h1.585c.247,0,.3-.027.3-.273,0-.109.027-1.422.027-2.379v-.683a.794.794,0,1,1,1.587.053c0,.793-.055,2.981-.055,2.981,0,.3.056.3.411.3H37.27a.726.726,0,1,1,0,1.45Z"/><path class="cls-1" d="M49.494,57.4c-.027-.082-.055-.137-.109-.137a.148.148,0,0,0-.109.082,5.054,5.054,0,0,1-4.156,2.108c-2.762,0-4.431-1.887-4.431-3.774,0-1.367.9-2.762,2.925-3.391a43.891,43.891,0,0,1,5.059-1.122c.328-.055.437-.137.437-.329,0-.136.028-.3.027-.437,0-1.5-.628-2.679-2.844-2.679a4.308,4.308,0,0,0-3.2,1.313.762.762,0,0,1-.575.273.74.74,0,0,1-.765-.738c0-1.039,2.3-2.215,4.647-2.216,2.544,0,4.268,1.121,4.269,4.184a7.255,7.255,0,0,1-.028.765c-.082.9-.137,2.324-.136,3.363,0,2,.192,2.653,1.285,3.036a.7.7,0,0,1,.466.683.739.739,0,0,1-.738.765A2.327,2.327,0,0,1,49.494,57.4Zm-.411-4.183v-.356c0-.219-.082-.3-.273-.3h-.082c-4.293.685-6.563,1.232-6.562,3.147,0,1.148,1.094,2.3,2.925,2.3C46.486,58,49.084,57.428,49.083,53.217Z"/><path class="cls-1" d="M63.028,47.06C63,47.635,63,48.017,63,48.428c0,.382,0,.793.027,1.422v.055a.672.672,0,0,1-.683.655.7.7,0,0,1-.766-.71c0-2.188-2.434-2.187-2.6-2.187-1.422,0-2.215.849-2.215,1.751a2.1,2.1,0,0,0,1.341,1.8c.765.355,2.078.9,2.926,1.339a3.914,3.914,0,0,1,2.435,3.391c0,1.5-1.2,3.528-4.32,3.528a4.292,4.292,0,0,1-2.735-.9.346.346,0,0,0-.191-.11c-.055,0-.083.055-.083.137,0,.684-.328.766-.656.766a.659.659,0,0,1-.71-.656v-.055c.026-.6.053-1.012.053-1.422s-.027-.82-.054-1.476V55.7a.718.718,0,0,1,.765-.712.7.7,0,0,1,.738.738c0,.192-.054.328-.054.52,0,.9,1.367,1.8,2.926,1.8,1.394,0,2.734-.794,2.734-2.106,0-1.45-1.2-2.1-4.376-3.417A3.306,3.306,0,0,1,55.289,49.5c0-1.585,1.284-3.144,3.718-3.145a4.4,4.4,0,0,1,2.407.738.2.2,0,0,0,.165.054c.137,0,.109-.245.137-.328a.614.614,0,0,1,.627-.437.639.639,0,0,1,.685.657Z"/><path class="cls-1" d="M78.37,59.089c-.71-.027-1.366-.054-1.968-.054s-1.2.028-1.832.055h-.055a.7.7,0,0,1-.738-.711.64.64,0,0,1,.737-.711c.711,0,.711-.165.711-.192a.214.214,0,0,0-.054-.11c-1.45-1.421-3.693-3.5-4.541-4.373a.975.975,0,0,0-.82-.328c-.41,0-.438.246-.438,1.668,0,.656,0,1.531.028,2.843a.418.418,0,0,0,.465.465,7,7,0,0,0,.766-.027h.027a.74.74,0,1,1,0,1.477h-.027c-.711-.027-1.422-.055-2.133-.054-.683,0-1.34.027-1.969.055a.707.707,0,0,1-.821-.711.753.753,0,0,1,.793-.766h.028c.327,0,.382.027.82.027a.431.431,0,0,0,.465-.465c.053-2.871.08-6.563.079-9.9,0-1.915-.028-3.747-.029-5.224,0-.766-.218-1.066-.9-1.094h-.629a.745.745,0,0,1-.765-.765c0-.711.492-.793,1.448-.793,2.243,0,2.435,1.449,2.435,2.05,0,3.527-.052,9.325-.052,9.325a.41.41,0,0,0,.465.437c.3,0,.41-.027,4.729-3.008.082-.055.11-.11.11-.137,0-.055-.055-.083-.192-.083-.492,0-1.148,0-1.148-.655a.7.7,0,0,1,.738-.712h.055c.683.027,1.285.027,1.914.027.6,0,1.258,0,1.969-.028a.667.667,0,0,1,.793.712.72.72,0,0,1-.766.71H78.04c-.383,0-.164-.027-.547-.027a1.31,1.31,0,0,0-.684.246c-1.613,1.095-3.718,2.517-5.057,3.393-.165.109-.22.191-.22.273,0,.191.711.848,5.662,5.386a1.013,1.013,0,0,0,.793.328c.109,0,.246-.028.41-.028a.677.677,0,0,1,.766.711.73.73,0,0,1-.765.766Z"/><path class="cls-1" d="M87.421,59.443a6.11,6.11,0,0,1-6.182-6.453c0-3.992,2.87-6.618,6.1-6.619a5.1,5.1,0,0,1,5.389,4.484c0,1.012-.6,1.777-2,1.833-.629.027-1.559.027-2.57.027-2.052,0-4.376-.026-4.978-.026-.273,0-.327.109-.327.492a4.465,4.465,0,0,0,4.594,4.812,4.9,4.9,0,0,0,3.965-1.806.78.78,0,0,1,.547-.246.836.836,0,0,1,.821.793C92.78,57.363,90.866,59.442,87.421,59.443Zm-.058-11.7c-2.625,0-4.293,2.353-4.292,3.365,0,.273.246.273,3.418.273,1.422,0,2.954,0,3.719-.028.656-.028.9-.329.9-.767C91.11,49.789,90.153,47.738,87.363,47.738Z"/><path class="cls-1" d="M99.477,48.091c-.438,0-.438.055-.438.383,0,1.039-.081,3.856-.081,5.879,0,2.133.056,3.582,2.189,3.582.245,0,.492-.027.765-.054h.11a.678.678,0,0,1,.657.71c0,.711-.656.848-1.751.848-3.5,0-3.5-2.98-3.5-4.183,0-1.75.053-5.086.053-6.426v-.438c0-.273-.081-.3-.273-.3H95.594a.726.726,0,1,1,0-1.449H97.18c.245,0,.3-.028.3-.273,0-.11.028-1.422.028-2.38v-.683a.794.794,0,1,1,1.586.054c0,.794-.054,2.981-.054,2.981,0,.3.055.3.411.3h2.433a.726.726,0,1,1,0,1.45Z"/><path class="cls-1" d="M111.7,59.41a6.217,6.217,0,0,1-6.429-6.453c0-3.828,2.706-6.7,6.152-6.7a6.306,6.306,0,0,1,3.091.82c.054.027.082.055.137.055.082,0,.109-.165.137-.3.027-.329.354-.465.655-.465a.705.705,0,0,1,.793.683V47.1c-.026.575-.026.985-.026,1.422,0,.41,0,.848.026,1.476v.055a.7.7,0,0,1-.792.684.723.723,0,0,1-.766-.655c-.027-.575.055-.9-.273-1.287a3.6,3.6,0,0,0-2.79-1.119,4.833,4.833,0,0,0-4.757,5.169c0,2.488,1.614,5.086,4.759,5.085a4.3,4.3,0,0,0,3.5-1.587.862.862,0,0,1,.711-.41.876.876,0,0,1,.875.848C116.706,57.577,114.656,59.409,111.7,59.41Z"/><path class="cls-1" d="M132.349,59.077c-.712-.027-1.423-.055-2.134-.055-.684,0-1.339.028-1.969.056a.707.707,0,0,1-.82-.711.752.752,0,0,1,.792-.766h.027c.356,0,.383.028.821.027a.424.424,0,0,0,.437-.465c0-.9.028-1.941.027-2.953,0-1.423-.028-2.708-.055-3.228a3.069,3.069,0,0,0-3.146-3.225,3.993,3.993,0,0,0-4.073,3.584c0,.518-.027,1.34-.027,2.323,0,1.012.028,2.215.028,3.5a.417.417,0,0,0,.465.464,6.983,6.983,0,0,0,.765-.027.741.741,0,1,1,.029,1.477h-.028c-.711-.027-1.449-.055-2.133-.055s-1.367.029-2,.056a.707.707,0,0,1-.821-.711.753.753,0,0,1,.792-.766h.028c.355,0,.437.027.875.027a.41.41,0,0,0,.437-.465c.028-2.216.054-5.661.053-8.942,0-2.325-.028-4.54-.029-6.18,0-.711-.218-1.094-.93-1.121a5.365,5.365,0,0,0-.6.027h-.027a.746.746,0,0,1-.766-.765c0-.465.219-.82,1.394-.82a5.835,5.835,0,0,1,.684.054,1.907,1.907,0,0,1,1.859,2.078q0,.738,0,1.559c0,2.215-.025,4.676-.025,5.058,0,.083.026.137.053.137s.055-.027.11-.082a5.122,5.122,0,0,1,4.047-1.86,4.331,4.331,0,0,1,4.568,4.374c.027,1.148.055,4.293.055,6.453,0,.3.137.493.465.493.41,0,.383-.028.767-.028h.027a.74.74,0,1,1,0,1.477Z"/><path class="cls-1" d="M91.777,22.417,83.129,16.55V2.735A2.738,2.738,0,0,0,80.394,0h-25a2.737,2.737,0,0,0-2.734,2.735V20.923a2.737,2.737,0,0,0,2.734,2.734H67.2L62.745,28.14a.678.678,0,0,0,.963.956l4.185-4.212L72.079,29.1a.678.678,0,0,0,.962-.956l-4.453-4.482H80.394a2.738,2.738,0,0,0,2.735-2.734V18.19l7.886,5.35a.679.679,0,0,0,.762-1.123Zm-10-6.787-4.639-3.147a.678.678,0,1,0-.761,1.122l5.4,3.664v3.654A1.379,1.379,0,0,1,80.394,22.3h-25a1.38,1.38,0,0,1-1.378-1.377V2.735a1.38,1.38,0,0,1,1.378-1.378h25a1.379,1.379,0,0,1,1.378,1.378Z"/></g></g></svg>